<?xml version="1.0" encoding="UTF-8" standalone="no"?>
<svg
   version="1.1"
   width="192"
   height="192"
   xlink="http://www.w3.org/1999/xlink"
   style="overflow:hidden !important"
   id="svg1"
   sodipodi:docname="favicon.svg"
   inkscape:version="1.3.2 (091e20e, 2023-11-25, custom)"
   xmlns:inkscape="http://www.inkscape.org/namespaces/inkscape"
   xmlns:sodipodi="http://sodipodi.sourceforge.net/DTD/sodipodi-0.dtd"
   xmlns="http://www.w3.org/2000/svg"
   xmlns:svg="http://www.w3.org/2000/svg">
  <sodipodi:namedview
     id="namedview1"
     pagecolor="#ffffff"
     bordercolor="#000000"
     borderopacity="0.25"
     inkscape:showpageshadow="2"
     inkscape:pageopacity="0.0"
     inkscape:pagecheckerboard="0"
     inkscape:deskcolor="#d1d1d1"
     showborder="false"
     inkscape:zoom="2.4412895"
     inkscape:cx="99.74237"
     inkscape:cy="68.611281"
     inkscape:window-width="1920"
     inkscape:window-height="991"
     inkscape:window-x="-9"
     inkscape:window-y="-9"
     inkscape:window-maximized="1"
     inkscape:current-layer="svg1" />
  <path
     stroke="none"
     opacity="1"
     stroke-width="none"
     fill="#fec6fc"
     d="M 224.55845,225.03825 H -24.721046 V -24.24125 H 224.55845 Z"
     id="avator-backgroud"
     style="overflow:hidden;display:inline;mix-blend-mode:normal;image-rendering:auto;stroke-width:0;stroke-dasharray:none"
     inkscape:label="avator-backgroud"
     transform="matrix(0.76900988,0,0,0.77021976,19.010729,18.67109)" />
  <g
     id="svga-group-wrapper"
     transform="matrix(0.76900988,0,0,0.77021976,19.010729,18.67109)"
     style="overflow:hidden;display:inline;mix-blend-mode:normal;image-rendering:auto">
    <g
       id="svga-group-backs-single">
      <path
         opacity="1"
         fill="url(#SvgjsRadialGradient5342)"
         d="m 100,99.999 -10,-150 h 20 z M 72.382,-47.775 53.01,-42.802 100,99.999 Z M 36.5,-36.265 18.973,-26.63 100,99.999 Z M 4.607,-16.192 -9.973,-2.5 100,99.999 Z M -21.292,11.182 -32.009,28.069 100,99.999 Z M -39.569,44.136 -45.749,63.158 100,99.999 Z M -49.077,80.6 -50.333,100.561 100,99.999 Z m -0.141,37.683 3.748,19.646 L 100,99.999 Z m 9.235,36.534 8.516,18.098 L 100,99.999 Z m 18.03,33.09 12.75,15.411 L 100,99.999 Z M 3.74,215.474 19.922,227.231 100,99.999 Z m 31.741,20.311 18.597,7.363 L 100,99.999 Z M 71.276,247.564 91.12,250.071 100,99.999 Z m 37.601,2.507 19.844,-2.507 L 100,99.999 Z m 37.042,-6.923 18.598,-7.362 L 100,99.999 Z M 180.076,227.231 196.259,215.475 100,99.999 Z M 209.201,203.32 221.952,187.909 100,99.999 Z m 22.264,-30.403 8.519,-18.098 L 100,99.999 Z m 14.004,-34.984 3.75,-19.648 L 100,99.999 Z M 250.332,100.564 249.078,80.6 100,99.999 Z M 245.749,63.161 239.57,44.136 100,99.999 Z M 232.009,28.072 221.293,11.181 100,99.999 Z M 209.974,-2.498 195.394,-16.193 100,99.999 Z M 181.028,-26.627 163.501,-36.266 100,99.999 Z M 146.992,-42.8 127.618,-47.778 100,99.999 Z"
         id="SvgjsPath5341"
         style="display:inline;fill:url(#SvgjsRadialGradient5342)" />
    </g>
    <g
       id="svga-group-subwrapper">
      <g
         id="svga-group-hair-back">
        <path
           stroke="none"
           opacity="1"
           stroke-width="none"
           fill="#73625b"
           d="m 100.5,100.5 h -1 v -1 h 1 z"
           id="SvgjsPath5314" />
      </g>
      <g
         id="svga-group-humanbody-single">
        <path
           stroke="none"
           opacity="1"
           stroke-width="none"
           fill="#f0c7b1"
           d="m 195.417,199.778 c -2.196,-4.746 -8.195,-11.779 -14.86,-13.722 -8.239,-2.403 -26.837,-5.308 -33.733,-6.923 -5.528,-1.296 -16.662,-11.294 -20.564,-14.65 -0.7,-0.6 -1.273,-1.839 -1.287,-2.76 -0.139,-10.864 4.195,-39.724 4.195,-39.724 H 100 70.833 c 0,0 4.334,28.859 4.193,39.724 -0.011,0.921 -0.587,2.16 -1.285,2.76 -3.902,3.356 -15.036,13.354 -20.564,14.65 -6.897,1.615 -25.495,4.619 -33.733,7.022 -6.667,1.942 -12.664,8.876 -14.86,13.622 -3.708,8.008 -4.584,22.5 -4.584,35 h 100 100 c 0,-12.499 -0.877,-26.991 -4.583,-34.999 z"
           id="SvgjsPath2893" />
        <path
           stroke="none"
           opacity="1"
           stroke-width="none"
           fill="#ffe4d6"
           d="m 159.156,184.058 c 24.342,3.542 34.586,8.708 37.794,50.721 H 200 c 0,-12.5 -0.877,-26.992 -4.583,-35 -2.196,-4.746 -8.195,-11.779 -14.86,-13.722 -8.239,-2.403 -26.837,-5.308 -33.733,-6.923 -5.528,-1.296 -18.242,-12.069 -21.643,-16.35 3.36,4.704 12.791,15.605 21.054,18.46 3.953,1.366 7.245,1.988 12.921,2.814 z m -105.39,-2.814 c 8.263,-2.854 17.693,-13.756 21.054,-18.46 -3.4,4.28 -16.114,15.054 -21.643,16.35 -6.896,1.615 -25.494,4.619 -33.733,7.022 -6.665,1.942 -12.664,8.876 -14.86,13.622 -3.706,8.008 -4.583,22.5 -4.583,35 h 3.05 c 3.188,-41.744 13.475,-47.183 37.794,-50.721 5.675,-0.825 8.968,-1.447 12.921,-2.813 z"
           id="SvgjsPath2894" />
        <path
           stroke="none"
           opacity="1"
           stroke-width="none"
           fill="#e1ac8f"
           d="m 95.646,197.62 c 0,0 -5.074,-1.609 -7.083,-2.379 -10.449,-4.009 -44.395,-6.607 -44.395,-6.607 0,0 35.754,1.419 43.644,2.779 -0.458,-4.767 -3.017,-20.004 -3.017,-20.004 0,0 5.149,16.815 6.409,21.057 0.674,2.268 4.442,5.154 4.442,5.154 z m 10.799,-1.342 c -0.089,0.073 -0.191,0.168 -0.302,0.268 0.113,-0.085 0.215,-0.174 0.302,-0.268 z m -10.799,1.342 c 0,0 2.893,2.992 4.347,3.03 1.91,0.051 4.828,-2.899 6.151,-4.104 -1.265,0.957 -4.159,1.391 -5.31,1.436 -1.33,0.051 -5.188,-0.362 -5.188,-0.362 z m 21.018,-7.519 c -1.545,0.248 -4.386,0.789 -4.386,0.789 L 114.565,176 c -0.646,3.071 -4.474,16.211 -8.12,20.278 1.91,-1.616 6.158,-2.391 8.324,-2.704 10.236,-1.484 10.232,-1.483 41.062,-4.94 0,0 -29.071,-0.155 -39.167,1.467 z"
           id="SvgjsPath2895" />
        <path
           opacity="1"
           stroke-width="1.5"
           stroke="#c27b55"
           fill="none"
           d="m 195.417,199.778 c -2.196,-4.746 -8.195,-11.779 -14.86,-13.722 -8.239,-2.403 -26.837,-5.308 -33.733,-6.923 -5.528,-1.296 -16.662,-11.294 -20.564,-14.65 -0.7,-0.6 -1.273,-1.839 -1.287,-2.76 -0.139,-10.864 4.195,-39.724 4.195,-39.724 H 100 70.833 c 0,0 4.334,28.859 4.193,39.724 -0.011,0.921 -0.587,2.16 -1.285,2.76 -3.902,3.356 -15.036,13.354 -20.564,14.65 -6.897,1.615 -25.495,4.619 -33.733,7.022 -6.667,1.942 -12.664,8.876 -14.86,13.622 -3.708,8.008 -4.584,22.5 -4.584,35 h 100 100 c 0,-12.499 -0.877,-26.991 -4.583,-34.999 z"
           id="SvgjsPath2896" />
      </g>
      <g
         id="svga-group-chinshadow-single">
        <path
           opacity="1"
           fill="url(#SvgjsLinearGradient5366)"
           d="m 100.002,170.866 c 11.391,0 16.629,-6.36 24.218,-9.638 -0.008,-7.932 2.039,-23.933 3.282,-32.907 -16.136,-1.852 -38.871,-1.852 -55.006,0.001 1.243,8.973 3.29,24.972 3.281,32.903 7.593,3.277 12.831,9.641 24.225,9.641 z"
           id="SvgjsPath5365"
           style="fill:url(#SvgjsLinearGradient5366)" />
      </g>
      <g
         id="svga-group-clothes-single">
        <path
           opacity="1"
           stroke-width="none"
           fill="#386e77"
           d="m 111.806,235.888 c -19.135,0 -41.455,-0.074 -68.233,-0.229 L 19.894,235.531 C 5.596,235.453 4.753,235.437 3.007,235.437 l -4.899,0.007 c -4.571,-41.875 14.41,-52.87 43.762,-56.708 7.789,-1.097 15.449,-3.097 21.459,-6.972 16.327,22.243 64.811,17.562 73.103,-0.629 1.39,0.53 2.539,1.215 3.977,1.734 4.666,3.433 11.072,5.836 17.628,6.199 26.008,1.441 44.419,12.996 44.057,54.64 0.003,0.165 0.004,1.175 -0.013,1.49 -12.513,0 -17.206,0.121 -27.034,0.262 -13.331,0.19 -29.923,0.427 -63.229,0.427 -0.005,0.001 -0.008,0.001 -0.012,0.001 z"
           id="SvgjsPath5310" />
        <path
           opacity="1"
           stroke-width="none"
           fill="#4d7e86"
           d="m 201.055,234.64 c -0.41,-7.385 -4.064,-28.058 -10.36,-37.541 -12.482,-18.805 -42.26,-12.206 -49.132,-19.693 -4.986,10.159 -24.975,16.595 -31.594,17.54 19.181,-6.36 27.237,-10.959 30.42,-21.87 6.405,8.33 41.074,1.971 54.717,24.331 3.995,6.547 7.794,27.386 5.949,37.233 z M 55.811,177.628 c 1.357,-0.315 2.034,-1.249 3.381,-1.614 l -1.426,-1.891 c -9.049,7.052 -42.909,2.645 -54.519,24.036 -3.659,6.741 -6.127,22.788 -4.192,36.439 0.537,-8.384 0.799,-26.314 7.095,-35.798 11.324,-17.06 31.974,-12.553 47.619,-19.775 6.983,8.6 17.888,12.828 28.984,14.577 C 68.832,189.971 60.85,183.84 55.811,177.628 Z"
           id="SvgjsPath5311" />
        <path
           opacity="1"
           stroke-width="none"
           fill="#265e68"
           d="m 135.31,173.244 c -5.532,11.514 -47.35,24.923 -70.93,0.879 -1.466,0.622 -5.852,2.112 -5.852,2.112 17.176,23.386 67.511,23.534 80.909,-0.114 -0.059,-0.023 -2.765,-2.185 -4.127,-2.877 z"
           id="SvgjsPath5312" />
        <path
           opacity="1"
           stroke-width="none"
           fill="#0c4049"
           d="m 136.38,171.002 c -9.413,18.822 -58.397,21.485 -73.012,0.632 -5.337,1.578 -10.469,4.941 -15.636,5.782 -30.92,4.605 -53.778,6.919 -49.732,58.136 9.94,0 -6.611,-0.065 45.571,0.215 123.59,0.71 119.562,-0.461 158.606,-0.461 0.029,-0.14 0.015,-1.452 0.021,-1.596 2.096,-56.436 -30.852,-53.104 -53.12,-56.995 -3.144,-0.718 -6.066,-2.773 -8.635,-3.945 -1.419,-0.649 -2.625,-1.232 -4.063,-1.768 z m -73.366,1.263 c 12.974,23.392 64.219,18.699 74.113,0.101 1.2,0.504 1.507,0.704 2.898,1.197 -10.248,21.489 -60.942,28.337 -81.677,1.163 0.146,-0.041 3.204,-1.913 4.666,-2.461 z m -63.859,62.513 c -2.421,-26.431 1.797,-48.043 32.78,-53.345 10.276,-1.896 16.557,-1.962 25.384,-5.794 16.763,27.405 72.098,23.158 83.598,-1.305 1.652,1.409 4.228,3.03 7.405,3.785 18.098,4.299 54.838,-0.894 52.898,56.658 -54.057,-0.702 -98.865,-2.344 -202.065,0.001 z"
           id="SvgjsPath5313" />
      </g>
      <g
         id="svga-group-head">
        <g
           id="svga-group-ears-left">
          <path
             opacity="1"
             stroke-width="1.5"
             stroke="#c27b55"
             fill="#f0c7b1"
             d="m 47.001,83.231 c -1.376,-2.453 -5.638,-8.48 -9.98,-7.003 -2.749,0.935 -3.293,3.993 -3.735,6.693 -0.588,3.591 0.471,10.694 1.389,13.26 0.881,2.467 3.533,7.23 5.264,9.045 2.13,2.225 4.775,9.324 5.194,10.061 0.66,1.162 1.536,2.911 4.122,2.692 2.853,-0.244 4.584,-1.85 5.856,-2.121 3.142,-0.666 -4.529,-26.242 -8.11,-32.627 z"
             id="SvgjsPath5372" />
          <path
             opacity="1"
             stroke-width="none"
             fill="#c27b55"
             d="m 44.197,98.104 c -0.132,-0.581 0.007,-1.56 0.142,-2.504 0.124,-0.861 0.24,-1.675 0.169,-2.251 -0.267,-2.154 -1.773,-6.249 -2.757,-8.467 -1.132,-2.554 -2.963,-5.77 -5.262,-6.599 -0.95,-0.343 -1.575,0.067 -1.938,0.484 -0.266,0.305 -0.325,0.665 -0.238,0.707 0.086,0.042 0.285,-0.254 0.572,-0.535 0.235,-0.229 0.579,-0.426 1.051,-0.385 -0.19,1.073 -1.167,6.883 -0.744,10.845 0.333,3.115 1.593,5.442 1.79,5.791 0.029,0.367 0.077,0.726 0.148,1.075 0.929,4.547 4.971,9.717 6.378,11.409 0.259,0.313 0.531,0.497 0.598,0.423 0.066,-0.076 -0.094,-0.387 -0.353,-0.7 -1.388,-1.679 -5.391,-6.831 -6.289,-11.218 -0.952,-4.656 2.318,-11.556 3.048,-13.017 0.371,0.685 0.687,1.344 0.93,1.893 0.19,0.431 0.402,0.936 0.619,1.479 -0.429,0.762 -3.434,6.32 -2.338,10.767 0.406,1.641 2.235,3.755 3.447,4.333 0.667,0.32 0.919,0.797 1.209,1.349 0.336,0.64 0.718,1.365 1.828,1.892 0.225,0.108 0.429,0.151 0.61,0.151 0.313,0 0.551,-0.135 0.725,-0.293 0.018,0.28 0.017,0.64 0.009,0.97 -0.012,0.431 0.042,0.783 0.137,0.791 0.094,0.008 0.196,-0.332 0.207,-0.76 0.016,-0.526 0.013,-1.177 -0.072,-1.488 -0.248,-0.917 -1.008,-1.953 -1.813,-3.048 -0.789,-1.082 -1.607,-2.195 -1.813,-3.094 z M 36.95,94.073 c -2.177,-7.139 0.656,-13.3 1.144,-14.28 0.85,0.822 1.6,1.919 2.21,2.995 -0.444,0.858 -3.263,6.483 -3.354,11.285 z m 9.391,10.442 c -1.004,-0.475 -1.339,-1.115 -1.666,-1.733 -0.293,-0.559 -0.598,-1.136 -1.369,-1.505 -0.168,-0.081 -0.352,-0.203 -0.542,-0.343 -2.486,-6.263 0.272,-9.001 0.963,-9.562 0.211,0.766 0.369,1.468 0.439,2.031 0.063,0.517 -0.052,1.339 -0.167,2.134 -0.142,0.985 -0.286,2.004 -0.137,2.664 0.226,0.982 1.069,2.131 1.884,3.242 0.723,0.986 1.466,2.003 1.721,2.832 -0.108,0.164 -0.45,0.561 -1.126,0.24 z"
             id="SvgjsPath5373" />
        </g>
        <g
           id="svga-group-ears-right">
          <path
             opacity="1"
             stroke-width="1.5"
             stroke="#c27b55"
             fill="#f0c7b1"
             d="m 152.736,83.231 c 1.377,-2.453 5.639,-8.48 9.98,-7.003 2.75,0.935 3.293,3.993 3.736,6.693 0.588,3.591 -0.471,10.694 -1.389,13.26 -0.881,2.467 -3.533,7.23 -5.266,9.045 -2.129,2.225 -4.775,9.324 -5.193,10.061 -0.658,1.162 -1.535,2.911 -4.121,2.692 -2.854,-0.244 -4.584,-1.85 -5.857,-2.121 -3.142,-0.666 4.53,-26.242 8.11,-32.627 z"
             id="SvgjsPath5374" />
          <path
             opacity="1"
             stroke-width="none"
             fill="#c27b55"
             d="m 153.727,101.196 c -0.805,1.096 -1.564,2.131 -1.813,3.048 -0.086,0.311 -0.088,0.962 -0.072,1.488 0.012,0.428 0.113,0.768 0.207,0.76 0.094,-0.008 0.148,-0.36 0.137,-0.791 -0.008,-0.331 -0.008,-0.69 0.01,-0.97 0.174,0.158 0.412,0.293 0.725,0.293 0.182,0 0.385,-0.043 0.609,-0.151 1.109,-0.526 1.492,-1.252 1.828,-1.892 0.289,-0.552 0.543,-1.028 1.209,-1.349 1.213,-0.578 3.041,-2.692 3.447,-4.333 1.096,-4.447 -1.908,-10.005 -2.338,-10.767 0.217,-0.544 0.43,-1.049 0.619,-1.479 0.244,-0.549 0.559,-1.208 0.93,-1.893 0.73,1.46 4,8.361 3.049,13.017 -0.896,4.387 -4.9,9.539 -6.289,11.218 -0.258,0.313 -0.418,0.624 -0.352,0.7 0.066,0.074 0.338,-0.109 0.598,-0.423 1.406,-1.692 5.449,-6.862 6.379,-11.409 0.07,-0.35 0.117,-0.708 0.146,-1.075 0.197,-0.349 1.459,-2.676 1.791,-5.791 0.422,-3.961 -0.555,-9.772 -0.744,-10.845 0.473,-0.042 0.814,0.156 1.051,0.385 0.287,0.281 0.486,0.577 0.572,0.535 0.086,-0.042 0.027,-0.402 -0.238,-0.707 -0.363,-0.417 -0.988,-0.827 -1.938,-0.484 -2.299,0.83 -4.131,4.045 -5.262,6.599 -0.984,2.218 -2.49,6.313 -2.758,8.467 -0.072,0.576 0.045,1.39 0.17,2.251 0.135,0.945 0.273,1.924 0.141,2.504 -0.205,0.901 -1.023,2.014 -1.814,3.094 z m 5.707,-18.409 c 0.611,-1.075 1.361,-2.173 2.211,-2.995 0.488,0.98 3.32,7.141 1.145,14.28 -0.093,-4.801 -2.911,-10.426 -3.356,-11.285 z m -7.164,21.488 c 0.254,-0.829 0.998,-1.846 1.721,-2.832 0.816,-1.111 1.658,-2.26 1.885,-3.242 0.148,-0.66 0.004,-1.679 -0.137,-2.664 -0.115,-0.795 -0.23,-1.617 -0.166,-2.134 0.068,-0.563 0.227,-1.266 0.438,-2.031 0.691,0.561 3.449,3.299 0.965,9.562 -0.191,0.14 -0.375,0.263 -0.543,0.343 -0.771,0.369 -1.074,0.946 -1.369,1.505 -0.326,0.618 -0.662,1.258 -1.666,1.733 -0.677,0.321 -1.019,-0.076 -1.128,-0.24 z"
             id="SvgjsPath5375" />
        </g>
        <g
           id="svga-group-faceshape-wrap">
          <g
             id="svga-group-faceshape-single">
            <path
               opacity="1"
               stroke-width="none"
               fill="#f0c7b1"
               d="M 100.002,0.867 C 66.384,0.92 39.082,28.536 39.134,62.56 c 0.009,5.403 0.704,10.643 2.002,15.634 h 10e-4 c 0.012,0.054 8.12,35.809 11.82,47.522 2.775,8.787 14.288,21.989 22.398,25.322 7.826,3.217 13.039,9.828 24.646,9.828 11.607,0 16.82,-6.611 24.646,-9.828 8.11,-3.333 19.624,-16.535 22.398,-25.322 3.7,-11.713 11.809,-47.468 11.819,-47.522 h 0.002 C 160.164,73.202 160.86,67.963 160.868,62.56 160.923,28.536 133.62,0.92 100.002,0.867 Z"
               id="SvgjsPath5362" />
            <path
               opacity="1"
               stroke-width="none"
               fill="#e8b9a0"
               d="m 140.727,16.737 c 10.424,11.164 16.867,26.574 16.844,43.586 -0.009,5.403 -0.666,10.643 -1.894,15.634 h -0.001 c -0.011,0.054 -7.681,35.809 -11.18,47.522 -2.623,8.788 -13.515,21.989 -21.184,25.322 -7.403,3.216 -12.333,9.829 -23.31,9.829 -10.978,0 -15.908,-6.613 -23.309,-9.829 -7.671,-3.333 -18.56,-16.534 -21.184,-25.322 -3.5,-11.713 -11.168,-47.468 -11.18,-47.522 H 44.328 C 43.099,70.965 42.442,65.726 42.434,60.323 42.409,43.312 48.852,27.904 59.274,16.74 46.893,28.034 39.106,44.38 39.134,62.56 c 0.009,5.403 0.704,10.643 2.002,15.634 h 10e-4 c 0.012,0.054 8.12,35.809 11.82,47.522 2.775,8.787 14.288,21.989 22.398,25.322 7.826,3.217 13.039,9.828 24.646,9.828 11.607,0 16.82,-6.611 24.646,-9.828 8.11,-3.333 19.624,-16.535 22.398,-25.322 3.7,-11.713 11.809,-47.468 11.819,-47.522 h 0.002 c 1.298,-4.992 1.994,-10.231 2.002,-15.634 0.03,-18.182 -7.757,-34.529 -20.141,-45.823 z"
               id="SvgjsPath5363" />
            <path
               opacity="1"
               stroke-width="1.5"
               stroke="#c27b55"
               fill="none"
               d="M 100.002,0.867 C 66.384,0.92 39.082,28.536 39.134,62.56 c 0.009,5.403 0.704,10.643 2.002,15.634 h 10e-4 c 0.012,0.054 8.12,35.809 11.82,47.522 2.775,8.787 14.288,21.989 22.398,25.322 7.826,3.217 13.039,9.828 24.646,9.828 11.607,0 16.82,-6.611 24.646,-9.828 8.11,-3.333 19.624,-16.535 22.398,-25.322 3.7,-11.713 11.809,-47.468 11.819,-47.522 h 0.002 C 160.164,73.202 160.86,67.963 160.868,62.56 160.923,28.536 133.62,0.92 100.002,0.867 Z"
               id="SvgjsPath5364" />
          </g>
        </g>
        <g
           transform="matrix(0.9499999,0,0,0.9499999,6.062315,8.6082164)"
           id="svga-group-mouth-single">
          <path
             opacity="1"
             fill="url(#SvgjsLinearGradient5358)"
             d="m 99.983,141.177 c -3.24,0 -4.753,-3.8 -4.753,-3.8 0,0 4.826,0.199 9.279,0.933 0,0 -1.677,2.867 -4.526,2.867 z"
             id="SvgjsPath5357"
             style="fill:url(#SvgjsLinearGradient5358)" />
          <path
             opacity="1"
             stroke-width="none"
             fill="#c27b55"
             d="m 87.792,135.571 c -0.373,-0.33 1.528,-3.373 3.926,-4.045 3.031,-0.882 5.759,0.026 7.991,0.413 2.034,0.354 5.041,0.049 7.028,0.579 2.249,0.6 8.464,3.283 7.981,3.8 -0.238,0.255 -4.963,-1.676 -8.076,-2.278 -1.98,-0.384 -4.881,-0.086 -6.874,-0.413 -2.062,-0.337 -4.47,-1.21 -7.268,-0.805 -2.538,0.367 -4.283,3.125 -4.708,2.749 z"
             id="SvgjsPath5361" />
        </g>
        <g
           id="svga-group-eyes-left">
          <g
             id="svga-group-eyesback-left">
            <path
               opacity="1"
               fill="url(#SvgjsRadialGradient5220)"
               d="m 74.8,71.999 c 7.18,0 13,5.82 13,13 0,7.18 -5.82,13 -13,13 -7.18,0 -13,-5.82 -13,-13 0,-7.18 5.82,-13 13,-13 z"
               id="SvgjsPath5219"
               style="fill:url(#SvgjsRadialGradient5220)" />
          </g>
          <g
             transform="translate(1,1)"
             id="svga-group-eyesiriswrapper-left">
            <g
               transform="translate(1.0000002)"
               id="svga-group-eyesiriscontrol-left">
              <g
                 id="svga-group-eyesiris-left">
                <path
                   opacity="1"
                   stroke-width="none"
                   fill="#4faaab"
                   d="m 80,84 c 0,3.313 -2.687,6 -6,6 -3.313,0 -6,-2.687 -6,-6 v 0 c 0,-3.314 2.687,-6 6,-6 3.313,-0.001 6,2.686 6,6 z"
                   id="SvgjsPath5257" />
                <path
                   opacity="0.7"
                   fill="url(#SvgjsRadialGradient5259)"
                   d="m 73.328,78.066 c -0.023,0.003 -0.047,0.006 -0.071,0.009 0.029,0.135 0.057,0.271 0.085,0.406 -0.006,-0.137 -0.009,-0.277 -0.014,-0.415 z m 0.013,0.414 c 0.07,1.972 0.185,3.729 0.517,4.364 0.175,-0.696 -0.123,-2.43 -0.517,-4.364 z m 0.518,4.365 c -0.043,0.167 -0.108,0.281 -0.208,0.319 -0.1,0.038 -0.226,-0.006 -0.368,-0.103 0.041,0.167 0.037,0.297 -0.036,0.378 -0.072,0.081 -0.201,0.101 -0.373,0.078 0.113,0.13 0.171,0.249 0.146,0.353 -0.027,0.104 -0.134,0.182 -0.293,0.242 0.159,0.063 0.266,0.141 0.291,0.245 0.025,0.104 -0.033,0.223 -0.145,0.352 0.17,-0.021 0.301,10e-4 0.371,0.082 0.071,0.081 0.075,0.212 0.035,0.379 0.141,-0.097 0.265,-0.139 0.365,-0.1 0.101,0.038 0.166,0.152 0.206,0.32 0.081,-0.152 0.171,-0.249 0.28,-0.26 0.104,-0.014 0.216,0.059 0.329,0.188 10e-4,-0.172 0.037,-0.299 0.127,-0.36 0.088,-0.061 0.219,-0.049 0.379,0.013 -0.078,-0.152 -0.105,-0.281 -0.055,-0.377 0.05,-0.095 0.173,-0.146 0.344,-0.166 -0.141,-0.099 -0.227,-0.2 -0.225,-0.308 0,-0.108 0.084,-0.209 0.227,-0.306 -0.17,-0.021 -0.291,-0.072 -0.342,-0.167 -0.049,-0.095 -0.022,-0.225 0.058,-0.377 -0.162,0.06 -0.292,0.072 -0.38,0.011 -0.089,-0.061 -0.125,-0.188 -0.125,-0.36 -0.112,0.128 -0.224,0.199 -0.33,0.185 -0.108,-0.014 -0.199,-0.108 -0.278,-0.261 z m 0.607,0.075 c 0.479,-0.535 1.021,-2.209 1.57,-4.104 -0.854,1.777 -1.569,3.386 -1.57,4.104 z m 1.569,-4.104 c 0.06,-0.122 0.121,-0.246 0.178,-0.37 -0.021,-0.007 -0.042,-0.017 -0.063,-0.026 -0.038,0.133 -0.076,0.266 -0.115,0.396 z m -1.063,4.454 c 0.672,-0.252 1.931,-1.483 3.297,-2.905 -1.581,1.176 -2.963,2.269 -3.297,2.905 z m 3.297,-2.905 c 0.1,-0.075 0.203,-0.15 0.305,-0.225 -0.014,-0.018 -0.03,-0.033 -0.042,-0.049 -0.087,0.09 -0.174,0.183 -0.263,0.274 z m -3.015,3.449 c 0.713,0.088 2.4,-0.417 4.272,-1.041 -1.948,0.308 -3.678,0.633 -4.272,1.041 z m 4.272,-1.04 c 0.11,-0.016 0.225,-0.034 0.337,-0.052 -0.004,-0.019 -0.009,-0.038 -0.014,-0.057 -0.107,0.036 -0.217,0.073 -0.323,0.109 z m -4.273,1.653 c 0.59,0.412 2.318,0.747 4.262,1.063 -1.865,-0.633 -3.548,-1.148 -4.262,-1.063 z m 4.263,1.063 c 0.095,0.033 0.191,0.067 0.285,0.098 0.005,-0.017 0.009,-0.033 0.012,-0.05 -0.097,-0.015 -0.198,-0.031 -0.297,-0.048 z m -4.551,-0.52 c 0.333,0.637 1.708,1.738 3.282,2.924 -1.359,-1.43 -2.609,-2.668 -3.282,-2.924 z m 3.283,2.922 c 0.059,0.062 0.12,0.126 0.179,0.189 0.01,-0.012 0.019,-0.021 0.03,-0.032 -0.07,-0.052 -0.142,-0.105 -0.209,-0.157 z M 74.46,85.317 c -0.003,0.719 0.703,2.331 1.547,4.113 -0.539,-1.897 -1.07,-3.575 -1.547,-4.113 z m 1.547,4.114 c 0.021,0.075 0.043,0.152 0.063,0.229 0.015,-0.006 0.025,-0.01 0.039,-0.014 -0.033,-0.072 -0.068,-0.146 -0.102,-0.215 z m -2.156,-4.042 c -0.336,0.637 -0.461,2.39 -0.542,4.361 0.404,-1.93 0.713,-3.663 0.542,-4.361 z m -0.542,4.361 c -0.017,0.075 -0.031,0.151 -0.047,0.228 0.014,0.003 0.025,0.003 0.039,0.005 0.002,-0.077 0.006,-0.157 0.008,-0.233 z M 73.28,85.169 c -0.596,0.407 -1.521,1.904 -2.508,3.61 1.254,-1.52 2.334,-2.912 2.508,-3.61 z m -2.508,3.61 c -0.053,0.063 -0.108,0.13 -0.162,0.193 0.013,0.008 0.024,0.014 0.038,0.024 0.04,-0.072 0.083,-0.145 0.124,-0.217 z m 2.103,-4.069 c -0.716,0.083 -2.231,0.978 -3.898,2.029 1.818,-0.762 3.418,-1.491 3.898,-2.029 z m -3.899,2.031 c -0.086,0.036 -0.174,0.072 -0.263,0.11 0.006,0.013 0.015,0.027 0.023,0.04 0.081,-0.049 0.161,-0.1 0.24,-0.15 z m 3.752,-2.628 c -0.671,-0.257 -2.429,-0.168 -4.395,-0.011 1.964,0.168 3.722,0.265 4.395,0.011 z m -4.395,-0.011 c -0.107,-0.01 -0.217,-0.02 -0.323,-0.029 0,0.019 -0.002,0.038 0,0.056 0.109,-0.01 0.218,-0.019 0.323,-0.027 z m 4.542,-0.583 c -0.473,-0.539 -2.069,-1.277 -3.881,-2.051 1.659,1.06 3.169,1.964 3.881,2.051 z m -3.881,-2.051 c -0.104,-0.067 -0.209,-0.134 -0.315,-0.201 -0.009,0.019 -0.019,0.038 -0.029,0.055 0.116,0.049 0.232,0.097 0.344,0.146 z m 4.29,1.593 c -0.169,-0.698 -1.241,-2.094 -2.485,-3.623 0.976,1.712 1.893,3.213 2.485,3.623 z m -2.485,-3.623 c -0.067,-0.115 -0.132,-0.232 -0.199,-0.349 -0.019,0.013 -0.039,0.026 -0.056,0.039 0.084,0.103 0.172,0.207 0.255,0.31 z"
                   id="SvgjsPath5258"
                   style="fill:url(#SvgjsRadialGradient5259)" />
                <path
                   opacity="0.4"
                   fill="url(#SvgjsRadialGradient5263)"
                   d="m 74.886,78.086 c -0.024,-0.003 -0.047,-0.007 -0.07,-0.01 -0.007,0.138 -0.016,0.277 -0.024,0.414 0.03,-0.134 0.063,-0.27 0.094,-0.404 z m -0.095,0.403 c -0.442,1.922 -0.787,3.649 -0.629,4.35 0.349,-0.628 0.509,-2.38 0.629,-4.35 z m -0.63,4.35 c -0.084,0.15 -0.176,0.243 -0.283,0.254 -0.106,0.01 -0.216,-0.064 -0.327,-0.195 -0.004,0.171 -0.042,0.297 -0.133,0.356 -0.09,0.059 -0.221,0.045 -0.38,-0.021 0.076,0.155 0.101,0.285 0.049,0.378 -0.053,0.094 -0.176,0.142 -0.345,0.158 0.137,0.101 0.22,0.204 0.217,0.312 -0.002,0.107 -0.089,0.207 -0.231,0.302 0.169,0.024 0.29,0.079 0.337,0.174 0.048,0.096 0.018,0.225 -0.064,0.375 0.161,-0.057 0.292,-0.065 0.379,-0.002 0.087,0.063 0.12,0.19 0.116,0.363 0.117,-0.125 0.229,-0.196 0.337,-0.179 0.105,0.014 0.194,0.113 0.27,0.268 0.045,-0.167 0.113,-0.279 0.216,-0.315 0.101,-0.036 0.225,0.01 0.363,0.111 -0.036,-0.167 -0.029,-0.299 0.044,-0.378 0.073,-0.079 0.205,-0.096 0.376,-0.072 -0.111,-0.132 -0.168,-0.251 -0.138,-0.355 0.028,-0.104 0.136,-0.18 0.299,-0.237 -0.16,-0.064 -0.263,-0.145 -0.288,-0.25 -0.023,-0.105 0.037,-0.223 0.154,-0.349 -0.172,0.016 -0.301,-0.006 -0.37,-0.088 -0.07,-0.082 -0.072,-0.214 -0.028,-0.379 -0.142,0.094 -0.268,0.134 -0.367,0.093 -0.103,-0.041 -0.165,-0.156 -0.203,-0.324 z m 0.568,0.231 c 0.601,-0.394 1.557,-1.871 2.578,-3.558 -1.285,1.495 -2.391,2.863 -2.578,3.558 z m 2.578,-3.559 c 0.089,-0.102 0.18,-0.206 0.268,-0.311 -0.019,-0.013 -0.036,-0.028 -0.055,-0.042 -0.071,0.119 -0.142,0.238 -0.213,0.353 z m -2.18,4.027 c 0.715,-0.07 2.25,-0.934 3.937,-1.953 -1.833,0.727 -3.45,1.425 -3.937,1.953 z m 3.936,-1.954 c 0.117,-0.046 0.235,-0.092 0.354,-0.138 -0.01,-0.021 -0.021,-0.04 -0.028,-0.059 -0.108,0.066 -0.216,0.133 -0.326,0.197 z m -3.804,2.553 c 0.666,0.27 2.426,0.218 4.395,0.101 -1.961,-0.208 -3.716,-0.342 -4.395,-0.101 z m 4.395,0.1 c 0.112,0.013 0.226,0.025 0.339,0.037 0,-0.02 0.001,-0.039 0.002,-0.058 -0.114,0.007 -0.229,0.014 -0.341,0.021 z M 75.1,84.729 c 0.462,0.551 2.046,1.321 3.842,2.129 -1.639,-1.095 -3.131,-2.027 -3.842,-2.129 z m 3.841,2.129 c 0.083,0.057 0.167,0.114 0.25,0.168 0.009,-0.015 0.017,-0.03 0.025,-0.045 -0.09,-0.039 -0.184,-0.081 -0.275,-0.123 z M 74.68,85.179 c 0.156,0.701 1.2,2.12 2.414,3.674 -0.943,-1.734 -1.83,-3.254 -2.414,-3.674 z m 2.414,3.671 c 0.042,0.075 0.083,0.153 0.125,0.229 0.012,-0.009 0.024,-0.016 0.037,-0.024 -0.054,-0.068 -0.109,-0.138 -0.162,-0.205 z m -2.991,-3.467 c -0.188,0.693 0.076,2.433 0.43,4.373 -0.031,-1.972 -0.109,-3.73 -0.43,-4.373 z m 0.429,4.373 c 0.001,0.078 0.003,0.158 0.003,0.238 0.014,-0.002 0.027,-0.004 0.041,-0.004 -0.014,-0.077 -0.029,-0.157 -0.044,-0.234 z m -1.036,-4.462 c -0.49,0.528 -1.064,2.189 -1.652,4.072 0.889,-1.759 1.637,-3.353 1.652,-4.072 z m -1.653,4.072 c -0.035,0.068 -0.07,0.138 -0.104,0.208 0.012,0.006 0.023,0.009 0.036,0.015 0.022,-0.073 0.046,-0.15 0.068,-0.223 z M 73,84.934 c -0.68,0.239 -1.962,1.446 -3.357,2.838 1.607,-1.144 3.009,-2.209 3.357,-2.838 z m -3.356,2.838 c -0.067,0.047 -0.137,0.098 -0.205,0.145 0.01,0.011 0.02,0.02 0.029,0.032 0.057,-0.059 0.117,-0.117 0.176,-0.177 z m 3.084,-3.387 c -0.713,-0.104 -2.407,0.368 -4.291,0.952 1.955,-0.266 3.688,-0.556 4.291,-0.952 z m -4.291,0.954 c -0.092,0.013 -0.187,0.024 -0.283,0.039 0.003,0.015 0.008,0.03 0.013,0.044 0.091,-0.026 0.181,-0.056 0.27,-0.083 z m 4.304,-1.567 c -0.582,-0.423 -2.303,-0.792 -4.242,-1.149 1.854,0.671 3.526,1.22 4.242,1.149 z m -4.242,-1.149 c -0.101,-0.037 -0.205,-0.075 -0.305,-0.112 -0.005,0.019 -0.011,0.037 -0.015,0.054 0.109,0.019 0.216,0.039 0.32,0.058 z m 4.539,0.612 c -0.318,-0.643 -1.668,-1.769 -3.219,-2.986 1.328,1.455 2.553,2.719 3.219,2.986 z m -3.22,-2.985 c -0.083,-0.091 -0.167,-0.183 -0.251,-0.275 -0.014,0.016 -0.029,0.031 -0.042,0.046 0.099,0.076 0.198,0.152 0.293,0.229 z m 3.733,2.649 c 0.017,-0.718 -0.656,-2.344 -1.464,-4.142 0.5,1.906 0.998,3.593 1.464,4.142 z m -1.464,-4.142 c -0.034,-0.128 -0.067,-0.259 -0.101,-0.389 -0.021,0.007 -0.043,0.015 -0.063,0.023 0.054,0.122 0.11,0.245 0.164,0.366 z"
                   id="SvgjsPath5262"
                   style="fill:url(#SvgjsRadialGradient5263)" />
                <path
                   opacity="1"
                   stroke-width="none"
                   fill="#4faaab"
                   d="m 76.354,84 c 0,1.3 -1.053,2.353 -2.353,2.353 -1.299,0 -2.354,-1.053 -2.354,-2.353 0,-1.299 1.055,-2.354 2.354,-2.354 1.3,0 2.353,1.054 2.353,2.354 z"
                   id="SvgjsPath5266" />
                <path
                   opacity="0.9"
                   stroke-width="none"
                   fill="#000000"
                   d="m 76.354,84 c 0,1.3 -1.053,2.353 -2.353,2.353 -1.299,0 -2.354,-1.053 -2.354,-2.353 0,-1.299 1.055,-2.354 2.354,-2.354 1.3,0 2.353,1.054 2.353,2.354 z"
                   id="SvgjsPath5267" />
                <path
                   opacity="0.5"
                   fill="url(#SvgjsLinearGradient5269)"
                   d="m 70.717,86.748 c 0.449,-0.302 1.059,-0.18 1.36,0.268 0.301,0.449 0.182,1.059 -0.268,1.36 -0.45,0.303 -1.059,0.183 -1.36,-0.267 -0.301,-0.449 -0.181,-1.06 0.268,-1.361 z"
                   id="SvgjsPath5268"
                   style="fill:url(#SvgjsLinearGradient5269)" />
                <path
                   opacity="0.5"
                   fill="url(#SvgjsLinearGradient5273)"
                   d="m 75.86,83.672 c -0.251,0.374 -0.969,0.331 -1.606,-0.096 -0.638,-0.427 -0.95,-1.078 -0.7,-1.451 v -0.001 c 0.25,-0.374 0.969,-0.331 1.605,0.097 0.639,0.426 0.951,1.076 0.701,1.451 z"
                   id="SvgjsPath5272"
                   style="fill:url(#SvgjsLinearGradient5273)" />
                <path
                   opacity="0.75"
                   fill="url(#SvgjsLinearGradient5277)"
                   d="m 78.716,82.673 c -0.568,0.873 -2.036,0.925 -3.275,0.117 -1.24,-0.808 -1.784,-2.17 -1.215,-3.043 0.568,-0.872 2.036,-0.924 3.275,-0.117 1.239,0.809 1.783,2.172 1.215,3.043 z"
                   id="SvgjsPath5276"
                   style="fill:url(#SvgjsLinearGradient5277)" />
              </g>
            </g>
          </g>
          <g
             id="svga-group-eyesfront-left">
            <path
               opacity="1"
               stroke-width="none"
               fill="#f0c7b1"
               d="m 56.198,84.999 c 0,13.807 8.507,25 19,25 10.493,0 19,-11.193 19,-25 0,-13.807 -8.507,-25 -19,-25 -10.493,0 -19,11.193 -19,25 z m 5.602,0 c 0,-7.18 5.82,-13 13,-13 7.18,0 13,5.82 13,13 0,7.18 -5.82,13 -13,13 -7.18,0 -13,-5.82 -13,-13 z"
               id="SvgjsPath5244" />
            <path
               opacity="1"
               stroke-width="none"
               fill="#000000"
               d="m 61.8,84.999 c 0,7.18 5.82,13 13,13 7.18,0 13,-5.82 13,-13 0,-7.18 -5.82,-13 -13,-13 -7.18,0 -13,5.82 -13,13 z m 1,0 c 0,-6.627 5.373,-12 12,-12 6.627,0 12,5.373 12,12 0,6.628 -5.373,12 -12,12 -6.627,0 -12,-5.372 -12,-12 z"
               id="SvgjsPath5245" />
          </g>
        </g>
        <g
           id="svga-group-eyes-right">
          <g
             id="svga-group-eyesback-right">
            <path
               opacity="1"
               fill="url(#SvgjsRadialGradient5228)"
               d="m 137.801,84.999 c 0,7.18 -5.82,13 -13,13 -7.18,0 -13,-5.82 -13,-13 0,-7.18 5.82,-13 13,-13 7.18,0 13,5.82 13,13 z"
               id="SvgjsPath5227"
               style="fill:url(#SvgjsRadialGradient5228)" />
          </g>
          <g
             transform="translate(-1,1)"
             id="svga-group-eyesiriswrapper-right">
            <g
               transform="translate(1.0000002)"
               id="svga-group-eyesiriscontrol-right">
              <g
                 id="svga-group-eyesiris-right">
                <path
                   opacity="1"
                   stroke-width="none"
                   fill="#4faaab"
                   d="m 132,84 c 0,3.313 -2.687,6 -5.999,6 C 122.688,90 120,87.313 120,84 v 0 c 0,-3.314 2.688,-6 6.001,-6 3.312,-0.001 5.999,2.686 5.999,6 z"
                   id="SvgjsPath5280" />
                <path
                   opacity="0.7"
                   fill="url(#SvgjsRadialGradient5282)"
                   d="m 125.328,78.066 c -0.023,0.003 -0.047,0.006 -0.071,0.009 0.029,0.135 0.058,0.271 0.085,0.406 -0.006,-0.137 -0.009,-0.277 -0.014,-0.415 z m 0.013,0.414 c 0.069,1.972 0.185,3.729 0.518,4.364 0.174,-0.696 -0.124,-2.43 -0.518,-4.364 z m 0.517,4.365 c -0.042,0.167 -0.108,0.281 -0.207,0.319 -0.101,0.038 -0.226,-0.006 -0.367,-0.103 0.04,0.167 0.036,0.297 -0.036,0.378 -0.072,0.081 -0.201,0.101 -0.372,0.078 0.112,0.13 0.171,0.249 0.146,0.353 -0.028,0.104 -0.134,0.182 -0.293,0.242 0.158,0.063 0.265,0.141 0.29,0.245 0.025,0.104 -0.032,0.223 -0.145,0.352 0.17,-0.021 0.3,10e-4 0.37,0.082 0.071,0.081 0.075,0.212 0.035,0.379 0.141,-0.097 0.266,-0.139 0.365,-0.1 0.102,0.038 0.166,0.152 0.206,0.32 0.08,-0.152 0.172,-0.249 0.279,-0.26 0.105,-0.014 0.217,0.059 0.329,0.188 0.002,-0.172 0.037,-0.299 0.128,-0.36 0.087,-0.061 0.219,-0.049 0.379,0.013 -0.078,-0.152 -0.104,-0.281 -0.056,-0.377 0.051,-0.095 0.174,-0.146 0.345,-0.166 -0.141,-0.099 -0.228,-0.2 -0.225,-0.308 -10e-4,-0.108 0.084,-0.209 0.227,-0.306 -0.171,-0.021 -0.291,-0.072 -0.342,-0.167 -0.05,-0.095 -0.022,-0.225 0.057,-0.377 -0.161,0.06 -0.291,0.072 -0.38,0.011 -0.089,-0.061 -0.124,-0.188 -0.125,-0.36 -0.111,0.128 -0.224,0.199 -0.33,0.185 -0.107,-0.014 -0.198,-0.108 -0.278,-0.261 z m 0.608,0.075 c 0.479,-0.535 1.021,-2.209 1.569,-4.104 -0.853,1.777 -1.567,3.386 -1.569,4.104 z m 1.569,-4.104 c 0.06,-0.122 0.121,-0.246 0.179,-0.37 -0.021,-0.007 -0.042,-0.017 -0.063,-0.026 -0.039,0.133 -0.077,0.266 -0.116,0.396 z m -1.063,4.454 c 0.673,-0.252 1.932,-1.483 3.298,-2.905 -1.582,1.176 -2.963,2.269 -3.298,2.905 z m 3.298,-2.905 c 0.1,-0.075 0.202,-0.15 0.305,-0.225 -0.015,-0.018 -0.03,-0.033 -0.042,-0.049 -0.088,0.09 -0.175,0.183 -0.263,0.274 z m -3.015,3.449 c 0.713,0.088 2.399,-0.417 4.271,-1.041 -1.948,0.308 -3.678,0.633 -4.271,1.041 z m 4.271,-1.04 c 0.11,-0.016 0.225,-0.034 0.337,-0.052 -0.005,-0.019 -0.009,-0.038 -0.014,-0.057 -0.107,0.036 -0.217,0.073 -0.323,0.109 z m -4.273,1.653 c 0.591,0.412 2.318,0.747 4.263,1.063 -1.866,-0.633 -3.549,-1.148 -4.263,-1.063 z m 4.263,1.063 c 0.095,0.033 0.19,0.067 0.285,0.098 0.005,-0.017 0.009,-0.033 0.013,-0.05 -0.098,-0.015 -0.2,-0.031 -0.298,-0.048 z m -4.551,-0.52 c 0.332,0.637 1.708,1.738 3.282,2.924 -1.358,-1.43 -2.609,-2.668 -3.282,-2.924 z m 3.283,2.922 c 0.059,0.062 0.119,0.126 0.178,0.189 0.01,-0.012 0.02,-0.021 0.031,-0.032 -0.07,-0.052 -0.142,-0.105 -0.209,-0.157 z m -3.787,-2.575 c -0.003,0.719 0.702,2.331 1.547,4.113 -0.54,-1.897 -1.071,-3.575 -1.547,-4.113 z m 1.547,4.114 c 0.021,0.075 0.043,0.152 0.063,0.229 0.015,-0.006 0.026,-0.01 0.039,-0.014 -0.034,-0.072 -0.069,-0.146 -0.102,-0.215 z m -2.157,-4.042 c -0.336,0.637 -0.461,2.39 -0.542,4.361 0.404,-1.93 0.713,-3.663 0.542,-4.361 z m -0.542,4.361 c -0.017,0.075 -0.031,0.151 -0.047,0.228 0.014,0.003 0.024,0.003 0.039,0.005 0.002,-0.077 0.006,-0.157 0.008,-0.233 z m -0.03,-4.581 c -0.596,0.407 -1.521,1.904 -2.508,3.61 1.255,-1.52 2.334,-2.912 2.508,-3.61 z m -2.508,3.61 c -0.052,0.063 -0.107,0.13 -0.161,0.193 0.013,0.008 0.024,0.014 0.037,0.024 0.041,-0.072 0.084,-0.145 0.124,-0.217 z m 2.103,-4.069 c -0.716,0.083 -2.23,0.978 -3.897,2.029 1.818,-0.762 3.418,-1.491 3.897,-2.029 z m -3.897,2.031 c -0.087,0.036 -0.175,0.072 -0.263,0.11 0.006,0.013 0.014,0.027 0.023,0.04 0.08,-0.049 0.16,-0.1 0.24,-0.15 z m 3.752,-2.628 c -0.672,-0.257 -2.43,-0.168 -4.396,-0.011 1.965,0.168 3.722,0.265 4.396,0.011 z m -4.396,-0.011 c -0.106,-0.01 -0.217,-0.02 -0.322,-0.029 -10e-4,0.019 -0.003,0.038 -10e-4,0.056 0.109,-0.01 0.218,-0.019 0.323,-0.027 z m 4.543,-0.583 c -0.474,-0.539 -2.069,-1.277 -3.882,-2.051 1.659,1.06 3.169,1.964 3.882,2.051 z m -3.882,-2.051 c -0.104,-0.067 -0.21,-0.134 -0.315,-0.201 -0.009,0.019 -0.019,0.038 -0.028,0.055 0.115,0.049 0.232,0.097 0.343,0.146 z m 4.29,1.593 c -0.169,-0.698 -1.241,-2.094 -2.485,-3.623 0.976,1.712 1.893,3.213 2.485,3.623 z m -2.485,-3.623 c -0.067,-0.115 -0.133,-0.232 -0.198,-0.349 -0.019,0.013 -0.039,0.026 -0.057,0.039 0.085,0.103 0.172,0.207 0.255,0.31 z"
                   id="SvgjsPath5281"
                   style="fill:url(#SvgjsRadialGradient5282)" />
                <path
                   opacity="0.4"
                   fill="url(#SvgjsRadialGradient5286)"
                   d="m 126.886,78.086 c -0.024,-0.003 -0.047,-0.007 -0.07,-0.01 -0.008,0.138 -0.016,0.277 -0.024,0.414 0.029,-0.134 0.062,-0.27 0.094,-0.404 z m -0.095,0.403 c -0.443,1.922 -0.787,3.649 -0.63,4.35 0.35,-0.628 0.51,-2.38 0.63,-4.35 z m -0.63,4.35 c -0.084,0.15 -0.177,0.243 -0.283,0.254 -0.106,0.01 -0.216,-0.064 -0.327,-0.195 -0.004,0.171 -0.042,0.297 -0.133,0.356 -0.09,0.059 -0.221,0.045 -0.38,-0.021 0.075,0.155 0.101,0.285 0.049,0.378 -0.054,0.094 -0.176,0.142 -0.346,0.158 0.138,0.101 0.22,0.204 0.217,0.312 -0.002,0.107 -0.089,0.207 -0.23,0.302 0.17,0.024 0.289,0.079 0.337,0.174 0.048,0.096 0.018,0.225 -0.064,0.375 0.162,-0.057 0.293,-0.065 0.38,-0.002 0.087,0.063 0.12,0.19 0.115,0.363 0.117,-0.125 0.229,-0.196 0.337,-0.179 0.105,0.014 0.194,0.113 0.27,0.268 0.046,-0.167 0.113,-0.279 0.216,-0.315 0.101,-0.036 0.226,0.01 0.363,0.111 -0.035,-0.167 -0.028,-0.299 0.045,-0.378 0.072,-0.079 0.204,-0.096 0.375,-0.072 -0.11,-0.132 -0.168,-0.251 -0.138,-0.355 0.027,-0.104 0.136,-0.18 0.299,-0.237 -0.159,-0.064 -0.263,-0.145 -0.288,-0.25 -0.022,-0.105 0.038,-0.223 0.154,-0.349 -0.172,0.016 -0.302,-0.006 -0.37,-0.088 -0.07,-0.082 -0.072,-0.214 -0.027,-0.379 -0.143,0.094 -0.269,0.134 -0.368,0.093 -0.102,-0.041 -0.166,-0.156 -0.203,-0.324 z m 0.568,0.231 c 0.601,-0.394 1.557,-1.871 2.578,-3.558 -1.285,1.495 -2.391,2.863 -2.578,3.558 z m 2.578,-3.559 c 0.089,-0.102 0.18,-0.206 0.269,-0.311 -0.02,-0.013 -0.037,-0.028 -0.056,-0.042 -0.071,0.119 -0.142,0.238 -0.213,0.353 z m -2.18,4.027 c 0.715,-0.07 2.249,-0.934 3.937,-1.953 -1.833,0.727 -3.45,1.425 -3.937,1.953 z m 3.936,-1.954 c 0.116,-0.046 0.234,-0.092 0.354,-0.138 -0.01,-0.021 -0.021,-0.04 -0.028,-0.059 -0.108,0.066 -0.216,0.133 -0.326,0.197 z m -3.804,2.553 c 0.666,0.27 2.426,0.218 4.396,0.101 -1.963,-0.208 -3.717,-0.342 -4.396,-0.101 z m 4.395,0.1 c 0.111,0.013 0.226,0.025 0.339,0.037 0.001,-0.02 0.001,-0.039 0.002,-0.058 -0.113,0.007 -0.229,0.014 -0.341,0.021 z m -4.554,0.492 c 0.463,0.551 2.046,1.321 3.842,2.129 -1.639,-1.095 -3.131,-2.027 -3.842,-2.129 z m 3.841,2.129 c 0.082,0.057 0.167,0.114 0.25,0.168 0.009,-0.015 0.018,-0.03 0.024,-0.045 -0.089,-0.039 -0.183,-0.081 -0.274,-0.123 z m -4.26,-1.679 c 0.155,0.701 1.199,2.12 2.413,3.674 -0.943,-1.734 -1.829,-3.254 -2.413,-3.674 z m 2.414,3.671 c 0.041,0.075 0.082,0.153 0.124,0.229 0.012,-0.009 0.023,-0.016 0.037,-0.024 -0.054,-0.068 -0.11,-0.138 -0.161,-0.205 z m -2.992,-3.467 c -0.188,0.693 0.076,2.433 0.43,4.373 -0.031,-1.972 -0.109,-3.73 -0.43,-4.373 z m 0.429,4.373 c 0.001,0.078 0.003,0.158 0.003,0.238 0.015,-0.002 0.026,-0.004 0.04,-0.004 -0.013,-0.077 -0.028,-0.157 -0.043,-0.234 z m -1.037,-4.462 c -0.489,0.528 -1.064,2.189 -1.652,4.072 0.89,-1.759 1.637,-3.353 1.652,-4.072 z m -1.652,4.072 c -0.035,0.068 -0.069,0.138 -0.104,0.208 0.012,0.006 0.022,0.009 0.035,0.015 0.023,-0.073 0.047,-0.15 0.069,-0.223 z M 125,84.934 c -0.68,0.239 -1.961,1.446 -3.356,2.838 1.606,-1.144 3.008,-2.209 3.356,-2.838 z m -3.356,2.838 c -0.067,0.047 -0.138,0.098 -0.205,0.145 0.01,0.011 0.02,0.02 0.029,0.032 0.057,-0.059 0.118,-0.117 0.176,-0.177 z m 3.084,-3.387 c -0.713,-0.104 -2.406,0.368 -4.29,0.952 1.954,-0.266 3.688,-0.556 4.29,-0.952 z m -4.29,0.954 c -0.093,0.013 -0.188,0.024 -0.283,0.039 0.004,0.015 0.008,0.03 0.013,0.044 0.09,-0.026 0.18,-0.056 0.27,-0.083 z m 4.303,-1.567 c -0.582,-0.423 -2.303,-0.792 -4.242,-1.149 1.854,0.671 3.526,1.22 4.242,1.149 z m -4.242,-1.149 c -0.101,-0.037 -0.205,-0.075 -0.305,-0.112 -0.006,0.019 -0.011,0.037 -0.015,0.054 0.108,0.019 0.216,0.039 0.32,0.058 z m 4.539,0.612 c -0.318,-0.643 -1.669,-1.769 -3.22,-2.986 1.329,1.455 2.554,2.719 3.22,2.986 z m -3.22,-2.985 c -0.083,-0.091 -0.167,-0.183 -0.251,-0.275 -0.015,0.016 -0.028,0.031 -0.043,0.046 0.099,0.076 0.2,0.152 0.294,0.229 z m 3.733,2.649 c 0.017,-0.718 -0.656,-2.344 -1.464,-4.142 0.501,1.906 0.998,3.593 1.464,4.142 z m -1.464,-4.142 c -0.034,-0.128 -0.067,-0.259 -0.102,-0.389 -0.021,0.007 -0.043,0.015 -0.063,0.023 0.055,0.122 0.111,0.245 0.165,0.366 z"
                   id="SvgjsPath5285"
                   style="fill:url(#SvgjsRadialGradient5286)" />
                <path
                   opacity="1"
                   stroke-width="none"
                   fill="#4faaab"
                   d="m 128.354,84 c 0,1.3 -1.054,2.353 -2.353,2.353 -1.3,0 -2.354,-1.053 -2.354,-2.353 0,-1.299 1.055,-2.354 2.354,-2.354 1.301,0 2.353,1.054 2.353,2.354 z"
                   id="SvgjsPath5289" />
                <path
                   opacity="0.9"
                   stroke-width="none"
                   fill="#000000"
                   d="m 128.354,84 c 0,1.3 -1.054,2.353 -2.353,2.353 -1.3,0 -2.354,-1.053 -2.354,-2.353 0,-1.299 1.055,-2.354 2.354,-2.354 1.301,0 2.353,1.054 2.353,2.354 z"
                   id="SvgjsPath5290" />
                <path
                   opacity="0.5"
                   fill="url(#SvgjsLinearGradient5292)"
                   d="m 122.718,86.748 c 0.448,-0.302 1.059,-0.18 1.359,0.268 0.302,0.449 0.183,1.059 -0.268,1.36 -0.45,0.303 -1.059,0.183 -1.359,-0.267 -0.302,-0.449 -0.182,-1.06 0.268,-1.361 z"
                   id="SvgjsPath5291"
                   style="fill:url(#SvgjsLinearGradient5292)" />
                <path
                   opacity="0.5"
                   fill="url(#SvgjsLinearGradient5296)"
                   d="m 127.859,83.672 c -0.251,0.374 -0.969,0.331 -1.605,-0.096 -0.638,-0.427 -0.95,-1.078 -0.7,-1.451 l 0.001,-0.001 c 0.25,-0.374 0.969,-0.331 1.605,0.097 0.638,0.426 0.95,1.076 0.699,1.451 z"
                   id="SvgjsPath5295"
                   style="fill:url(#SvgjsLinearGradient5296)" />
                <path
                   opacity="0.75"
                   fill="url(#SvgjsLinearGradient5300)"
                   d="m 130.717,82.673 c -0.569,0.873 -2.036,0.925 -3.276,0.117 -1.239,-0.808 -1.784,-2.17 -1.215,-3.043 0.568,-0.872 2.035,-0.924 3.275,-0.117 1.239,0.809 1.783,2.172 1.216,3.043 z"
                   id="SvgjsPath5299"
                   style="fill:url(#SvgjsLinearGradient5300)" />
              </g>
            </g>
          </g>
          <g
             id="svga-group-eyesfront-right">
            <path
               opacity="1"
               stroke-width="none"
               fill="#f0c7b1"
               d="m 124.402,59.999 c -10.493,0 -19,11.193 -19,25 0,13.807 8.507,25 19,25 10.493,0 19,-11.193 19,-25 0,-13.807 -8.506,-25 -19,-25 z M 124.801,98 c -7.18,0 -13,-5.82 -13,-13 0,-7.18 5.82,-13 13,-13 7.18,0 13,5.82 13,13 0,7.179 -5.821,13 -13,13 z"
               id="SvgjsPath5255" />
            <path
               opacity="1"
               stroke-width="none"
               fill="#000000"
               d="m 124.801,71.999 c -7.18,0 -13,5.82 -13,13 0,7.18 5.82,13 13,13 7.18,0 13,-5.82 13,-13 0,-7.18 -5.821,-13 -13,-13 z m 0,25 c -6.627,0 -12,-5.372 -12,-12 0,-6.627 5.373,-12 12,-12 6.627,0 12,5.373 12,12 0,6.628 -5.373,12 -12,12 z"
               id="SvgjsPath5256" />
          </g>
        </g>
        <g
           id="svga-group-facehighlight-single">
          <path
             opacity="1"
             fill="url(#SvgjsRadialGradient2886)"
             d="m 141,113.974 c 0.035,22.622 -18.292,40.994 -40.938,41.025 -22.642,0.037 -41.028,-18.273 -41.063,-40.9 -0.035,-22.62 18.292,-41.064 40.937,-41.1 22.643,-0.035 41.031,18.35 41.064,40.975 z"
             id="SvgjsPath2885"
             style="fill:url(#SvgjsRadialGradient2886)" />
          <path
             opacity="1"
             fill="url(#SvgjsRadialGradient2890)"
             d="m 137.5,53.999 c 0,20.711 -16.789,37.5 -37.499,37.5 -20.711,0 -37.501,-16.789 -37.501,-37.5 0,-20.711 16.79,-37.5 37.501,-37.5 20.71,0 37.499,16.789 37.499,37.5 z"
             id="SvgjsPath2889"
             style="fill:url(#SvgjsRadialGradient2890)" />
        </g>
        <g
           transform="rotate(7.5000002,72.011719,71.509766)"
           id="svga-group-eyebrows-left">
          <path
             opacity="1"
             stroke-width="none"
             fill="#2a232b"
             d="m 54,74.189 c 9.954,-9.974 16.761,-5.915 30.589,-3.264 0.845,0.162 6.32,1.539 5.31,3.469 -0.483,0.924 -2.036,0.814 -2.903,0.798 C 73.308,74.936 66.652,65.197 54,74.189 Z"
             id="SvgjsPath5376" />
        </g>
        <g
           transform="rotate(3.7500002,127.98828,71.509766)"
           id="svga-group-eyebrows-right">
          <path
             opacity="1"
             stroke-width="none"
             fill="#2a232b"
             d="m 146,74.189 c -9.953,-9.974 -16.761,-5.915 -30.589,-3.264 -0.846,0.162 -6.32,1.539 -5.311,3.469 0.483,0.924 2.036,0.814 2.903,0.798 13.688,-0.256 20.345,-9.995 32.997,-1.003 z"
             id="SvgjsPath5377" />
        </g>
        <g
           id="svga-group-nose-single">
          <path
             opacity="1"
             stroke-width="none"
             fill="#e1ac8f"
             d="m 96.831,88.524 c 0,0 -1.399,11.117 -2.026,13.281 -1.379,4.752 -6.168,11.417 -5.239,14.429 1.859,6.022 7.537,4.493 10.524,4.471 2.763,-0.022 8.072,1.552 9.162,-2.37 0.352,-1.266 -0.441,-4.466 -0.441,-4.466 0,0 -2.644,3.112 -8.875,2.767 -1.778,-0.099 -4.671,-2.096 -4.704,-4.912 -0.043,-3.817 1.802,-7.035 2.205,-10.824 0.304,-2.878 -0.606,-12.376 -0.606,-12.376 z"
             id="SvgjsPath5369" />
          <path
             opacity="1"
             stroke-width="none"
             fill="#c27b55"
             d="m 105.194,118.969 c 1.075,0 1.366,0.326 1.366,0.729 0,0.404 -0.335,1.026 -1.366,0.73 -1.134,-0.323 -3.113,-0.175 -3.113,-0.175 0,0 2.036,-1.284 3.113,-1.284 z m -10.272,0 c -1.077,0.001 -1.366,0.328 -1.366,0.733 -10e-4,0.403 0.323,0.983 1.366,0.729 1.15,-0.282 3.112,-0.175 3.112,-0.175 0,0 -2.035,-1.283 -3.112,-1.287 z m 13.888,-5.1 c 0,0 1.489,1.933 1.18,3.975 -0.301,1.983 -3.31,2.861 -3.31,2.861 0,0 2.089,-1.516 2.342,-3.356 0.118,-0.863 -0.212,-3.48 -0.212,-3.48 z m -18.383,-1.986 c 0,0 -1.086,2.704 -0.772,4.352 0.571,2.976 3.704,4.164 3.704,4.164 0,0 -1.955,-2.039 -2.65,-3.842 -0.761,-1.97 -0.282,-4.674 -0.282,-4.674 z"
             id="SvgjsPath5370" />
          <path
             opacity="1"
             stroke-width="none"
             fill="#ffe4d6"
             d="m 105.141,115.311 c 1.043,-0.889 1.148,-1.396 0.932,-1.729 -0.215,-0.334 -0.841,-0.545 -1.714,0.528 -0.963,1.18 -3.056,2.054 -3.056,2.054 0,0 2.795,0.034 3.838,-0.853 z"
             id="SvgjsPath5371" />
        </g>
        <g
           id="svga-group-beardwrap">
          <g
             id="svga-group-beard-single">
            <path
               opacity="1"
               stroke-width="none"
               fill="#2a232b"
               d="M 100,18.13 Z"
               id="SvgjsPath3021" />
          </g>
        </g>
        <g
           transform="translate(0,2.0000001)"
           id="svga-group-mustache-single">
          <path
             stroke="none"
             opacity="1"
             stroke-width="none"
             fill="#080806"
             d="m 88.22,131.44 c -1.02,-4.25 -1.69,-8.2 3.23,-10.45 3.51,-1.63 6.46,-0.38 10.12,-0.5 4.08,0 7.19,-1.04 9.08,2.05 1.87,3.04 2.02,5.53 1.74,8.9 0,0 -4.28,-0.42 -5.74,-0.44 -1.71,-0.02 -5.04,0.44 -6.76,0.44 -1.65,0 -4.87,-0.4 -6.52,-0.37 -1.31,0.02 -5.15,0.37 -5.15,0.37 z"
             id="SvgjsPath5381" />
          <path
             stroke="none"
             opacity="1"
             stroke-width="none"
             fill="#000000"
             d="m 91.59,130.66 c -1.69,-2.77 -1.31,-5.92 0.28,-7.92 -0.46,1.99 -0.45,5.82 -0.28,7.92 z m 4.37,-2.88 c 0,0 0.01,-2.1 -0.04,-2.11 -0.15,-1.37 -0.48,-1.83 -1.1,-3.19 -0.02,0.54 0.05,2.96 0.08,3.25 0,0 -0.03,3.24 0.34,5.3 0.01,0 0.66,-1.95 0.72,-3.25 z m 1.96,-5.92 c 0.27,2.05 0.73,5.14 1.41,7.13 0.54,-3.11 -0.11,-5.14 -1.41,-7.13 z m 6.3,7.81 c 0.24,-2.59 -1.66,-5.55 -1.67,-6.93 -0.92,1.55 0.63,5.09 1.18,6.98 0.19,0.59 0.22,1.07 0.22,1.07 0,0 0.22,-0.46 0.27,-1.12 z m 2.69,-6.43 c 0.34,0.56 0.5,1.75 0.71,2.85 0,-0.65 0.68,3.72 0.42,4.72 1.63,-1.79 0.49,-6.55 -1.13,-7.57 z m 4.04,3.11 c -0.16,-0.88 -0.65,-1.96 -1.51,-2.49 0.58,0.83 0.31,0.96 1.14,6.09 0.1,0.55 0.12,0.98 0.12,0.98 0.87,-1.85 0.25,-4.58 0.25,-4.58 z m -5.87,-2.61 c -0.4,2.54 0.27,4.9 1.55,7.17 -0.04,-2.44 -0.71,-4.55 -1.55,-7.17 z m -4.63,-0.25 c -0.6,2.7 0.17,4.14 0.28,7.8 1.3,-2.44 0.42,-5.19 -0.28,-7.8 z m -3.24,2.5 c -0.37,1.66 -0.31,3.35 0.14,4.92 0.38,-1.65 0.31,-3.33 -0.14,-4.92 z m -3.93,-0.88 c -0.36,1.83 -0.26,3.7 0.28,5.42 0.36,-1.78 0.27,-3.59 -0.28,-5.42 z m -3.79,-0.12 c -0.07,0 -0.64,1.08 -0.68,2.05 0,1 -0.03,2.16 0.81,3.37 -0.1,-0.9 -0.25,-4.5 -0.13,-5.42 z m 3.59,-1.3 c 0.11,-0.63 0.16,-1.46 0.63,-1.95 -1.44,0.58 -1.72,3.25 -1.12,5.38 0.48,-2.08 0.24,-2.13 0.49,-3.43 z m 7.93,-1.58 c 0.16,1.28 0.69,2.7 1.27,3.63 -0.09,-1.27 -0.43,-2.4 -1.27,-3.63 z m 2.53,-0.25 c 0.34,2.45 0.4,3 0.84,4 0.18,-2.23 -0.31,-3.14 -0.84,-4 z m 2.25,0.75 c 0.45,2.59 0.78,2.91 1.26,3.63 -0.24,-1.42 -0.44,-2.4 -1.26,-3.63 z m 2.1,-0.75 c 0.96,1.54 1.15,3.62 1.83,5.63 0.35,-1.97 0.06,-4.35 -1.83,-5.63 z m -11.87,0.06 c 0.15,1.2 0.66,2.66 1.27,3.63 -0.09,-1.36 -0.47,-2.46 -1.27,-3.63 z"
             id="SvgjsPath5382" />
          <path
             stroke="none"
             opacity="1"
             stroke-width="none"
             fill="#000000"
             d="m 112.39,131.44 c 0,0 0,-0.15 -0.01,-0.42 -0.02,-0.27 -0.01,-0.67 -0.05,-1.16 -0.02,-0.49 -0.08,-1.08 -0.18,-1.73 -0.1,-0.65 -0.26,-1.35 -0.5,-2.07 -0.12,-0.36 -0.29,-0.71 -0.43,-1.08 -0.19,-0.35 -0.38,-0.71 -0.57,-1.07 -0.22,-0.34 -0.45,-0.69 -0.68,-1.04 -0.23,-0.31 -0.48,-0.59 -0.76,-0.81 -0.56,-0.44 -1.21,-0.68 -1.96,-0.75 -0.75,-0.08 -1.54,-0.06 -2.31,-0.04 0,0 -0.62,0.02 -1.55,0.06 -0.95,0.05 -2.22,0.07 -3.52,0.02 -1.3,-0.07 -2.52,-0.22 -3.42,-0.28 -0.44,-0.01 -0.81,-0.02 -1.07,-0.02 -0.26,0 -0.4,0.02 -0.4,0.02 -0.69,0.03 -1.41,0.14 -2.15,0.33 -0.36,0.13 -0.73,0.24 -1.1,0.38 -0.36,0.17 -0.74,0.32 -1.08,0.54 -0.69,0.4 -1.32,0.89 -1.76,1.52 -0.45,0.62 -0.73,1.35 -0.87,2.09 -0.28,1.48 -0.11,2.92 -0.01,3.91 0.14,1 0.22,1.61 0.22,1.61 0,0 -0.19,-0.59 -0.49,-1.56 -0.27,-0.98 -0.69,-2.38 -0.61,-4.09 0.04,-0.85 0.25,-1.78 0.73,-2.64 0.47,-0.86 1.2,-1.58 1.98,-2.13 0.39,-0.3 0.81,-0.51 1.21,-0.74 0.43,-0.2 0.87,-0.36 1.29,-0.54 0.88,-0.28 1.76,-0.44 2.56,-0.47 0,0 0.17,-0.02 0.46,-0.02 0.29,0.01 0.7,0.02 1.19,0.03 0.96,0.06 2.23,0.21 3.42,0.28 1.19,0.05 2.41,0.02 3.33,-0.03 0.94,-0.06 1.56,-0.11 1.56,-0.11 0.79,-0.05 1.67,-0.08 2.62,0.07 0.95,0.13 2.02,0.55 2.79,1.3 0.39,0.36 0.69,0.79 0.95,1.21 0.24,0.42 0.42,0.83 0.62,1.24 0.18,0.42 0.32,0.85 0.47,1.26 0.11,0.43 0.22,0.84 0.3,1.25 0.14,0.82 0.19,1.59 0.18,2.28 -0.02,0.69 -0.07,1.29 -0.14,1.79 -0.05,0.5 -0.14,0.9 -0.18,1.17 -0.05,0.29 -0.08,0.44 -0.08,0.44 z"
             id="SvgjsPath5383" />
        </g>
        <g
           id="svga-group-hair-front">
          <path
             stroke="none"
             opacity="1"
             stroke-width="none"
             fill="#73625b"
             d="M 49.154,100.989 C 41.04,86.852 35.757,72.474 32.071,54.535 28.571,36.838 40.297,17.958 52.672,7.906 67.818,-4.442 92.105,-9.52 105.745,-9.52 c 7.418,0 18.449,2.012 24.415,3.877 7.057,2.059 15.913,7.557 20.008,15.023 2.753,-1.839 4.011,-2.934 6.237,-5.747 -1.313,3.125 -1.996,4.076 -5.692,8.969 2.123,-0.538 4.48,-0.844 7.924,-2.589 -3.487,3.242 -3.551,3.677 -5.566,5.744 4.989,1.96 9.135,6.575 11.729,10.739 9.042,14.558 -0.657,41.766 -5.318,54.841 -5.015,14.046 -1.861,6.874 -6.486,16.838 -7.409,-16.445 -9.127,-25.471 -10.057,-30.354 -2.46,-12.795 -5.433,-17.035 -4.421,-28.938 -18.036,11.75 -48.595,17.209 -62.768,17.209 -7.201,0 -11.792,-1.1 -16.393,-2.147 -9.306,27.486 -4.284,21.064 -8.418,38.616 -0.441,1.871 -0.981,4.164 -1.785,8.428 z"
             id="SvgjsPath5316" />
          <path
             stroke="none"
             opacity="1"
             stroke-width="none"
             fill="#644e45"
             d="m 159.48,81.338 c -5.015,14.046 -1.861,6.874 -6.486,16.838 -7.409,-16.445 -9.127,-25.471 -10.057,-30.354 -1.871,-9.732 -4.033,-14.521 -4.52,-21.49 C 146.461,63.629 148.82,67.361 152,84 c -0.537,-10.842 4.329,-20.013 3.14,-33.375 2.473,7.109 0.744,19.037 1.926,25.374 2.197,-17 11.835,-28.889 3.675,-54.776 1.593,1.683 2.965,3.517 4.059,5.273 9.041,14.558 -0.658,41.766 -5.32,54.842 z M 45.041,57.624 C 42.038,67.361 44,75 44,82 38.358,66.687 33.493,55.356 34.121,33.732 c -2.443,6.712 -3.426,13.848 -2.05,20.802 3.687,17.939 8.969,32.317 17.083,46.455 0.804,-4.264 1.344,-6.558 1.784,-8.428 C 54.96,75.483 51.039,78.945 59.356,53.945 52.858,64.136 49.459,75 48.499,85.999 48.528,77.259 44.466,69.543 45.041,57.624 Z m 100.48,-31.747 c -1.89,15.953 -1.267,16.889 0.128,23.438 0.212,0.888 0.376,1.469 0.377,1.469 1.989,7.238 2.726,8.845 3.206,14.878 0.471,-18.763 -4.807,-6.897 -3.711,-39.785 z m 12.37,29.479 c 0.073,-13.8 0.261,-25.658 -6.185,-33.808 7.853,8.234 7.553,22.513 6.185,33.808 z m -6.803,-5.36 c -0.504,-10.126 2.531,-24.609 -4.535,-30.715 8.063,5.782 5.152,21.511 4.535,30.715 z M 41.007,69.58 c -2.188,-6.914 -1.09,-10.268 -1.031,-18.759 0.698,7.976 -0.682,10.914 1.031,18.759 z m 7.452,7.833 c -0.411,-6.977 0.67,-17.285 6.154,-21.645 -4.53,4.325 -5.715,13.15 -6.154,21.645 z m 72.41,-80.678 c 8.801,-1.031 26.102,10.208 27,19.333 -1.597,-8.366 -19.196,-19.603 -27,-19.333 z m -23.666,4 c 13.247,-4.339 30.327,3.968 30.327,3.968 5.783,2.646 11.377,6.957 13.34,13.032 -2.42,-5.801 -7.938,-9.339 -13.813,-12.024 0,0 -17.184,-7.932 -29.854,-4.976 z M 38.869,37.402 c 4.04,-11.192 11.108,-22.028 22,-28 -9.84,6.456 -17.164,17.41 -22,28 z M 64.203,19.069 C 72.906,6.767 97.74,1.385 112.203,5.402 98.704,2.828 73.49,8.104 64.203,19.069 Z m 70.416,14.916 c -26.546,15.834 -51.703,17.264 -82.75,11.75 31.097,3.082 55.651,1.824 82.75,-11.75 z m -54.75,3.75 c 20.661,-0.885 30.552,-1.047 46,-8 -14.306,7.916 -25.873,8.977 -46,8 z m -30,4 c 16.223,-13.189 32.838,-14.953 60,-18 -27.418,5.37 -42.292,5.921 -60,18 z m 54,-29 c 2.269,-0.251 6.484,-0.926 14.006,-0.081 0,0 12.716,1.115 19.095,8.958 0.559,0.698 0.899,1.123 0.899,1.123 -8.348,-8.769 -21.82,-10.278 -34,-10 z"
             id="SvgjsPath5317" />
          <path
             stroke="none"
             opacity="1"
             stroke-width="none"
             fill="#827874"
             d="M 61.841,7.462 C 87.124,-7.777 111.577,-11.722 135.869,5.068 111.12,-9.22 88.093,-5.349 61.841,7.462 Z m 89.361,9.94 c 10.816,13.112 11.747,30.038 6.667,46 7.883,-18.283 3.915,-35.194 -6.667,-46 z M 44.534,22.551 c -5.779,6.816 -8.426,11.286 -9.649,20.271 -0.534,9.549 1.299,16.205 4.768,26.548 -4.808,-20.765 -7.022,-30.011 4.881,-46.819 z"
             id="SvgjsPath5318" />
          <path
             stroke="none"
             opacity="1"
             stroke-width="none"
             fill="#452c22"
             d="m 165.139,26.285 c -2.537,-4.073 -7.433,-8.843 -11.859,-10.58 2.086,-2.138 3.192,-3.127 7.91,-7.52 -2.367,1.29 -4.958,2.856 -9.67,4.05 4.25,-5.623 4.339,-6.192 6.359,-11.15 -2.641,3.395 -4.018,5.412 -7.77,7.92 -4.119,-7.511 -13.391,-13.151 -19.83,-15.03 -5.879,-1.837 -17.485,-4.013 -25.17,-3.89 -13.995,0.112 -37.791,5.363 -52.69,17.51 -11.061,8.984 -24.482,28.094 -20.74,47.02 3.401,16.551 8.392,31.602 17.67,47.51 2.605,-14.126 2.609,-8.458 4.62,-27.54 0.412,-4.89 4.173,-15.797 5.65,-20.17 8.703,1.981 18.616,4.319 46.61,-2.29 10.261,-2.374 22.654,-6.484 31.819,-12.46 -0.873,10.335 1.949,15.81 4.271,27.06 0.891,4.487 2.267,13.943 10.67,32.41 5.618,-12.105 1.914,-3.98 5.89,-14.9 3.912,-11.244 16.124,-42.068 6.26,-57.95 z m -4.22,44.691 c -7.884,24.153 -4.516,16.809 -8.09,25.74 -0.696,-1.823 -5.499,-15.777 -7.37,-23.55 -5.207,-23.993 -5.769,-22.234 -6.229,-29.04 -0.608,-10.554 1.64,-16.228 2.27,-18.75 -2.706,7.294 -3.39,12.414 -3.39,13.54 -12.465,7.624 -40.495,13.263 -54.65,14.74 -14.557,1.521 -32.529,-1.898 -45.52,-6.56 6.718,3.623 17.987,6.342 20.93,7.14 -1.758,4.375 -5.733,14.022 -6.29,20.16 -1.704,16.68 -3.133,19.904 -3.75,25.66 C 39.013,81.822 33.625,56.6 33.14,50.446 31.32,38.83 41.335,19.538 53.87,9.386 68.92,-3.005 93.752,-7.681 105.049,-7.985 c 6.584,-0.383 18.69,1.435 24.79,3.13 6.272,1.554 16.384,7.239 20.271,14.59 0,0 0,0.01 0.01,0.01 2.345,-1.555 2.967,-1.997 4.92,-3.95 0,0.01 0,0.02 -0.01,0.03 -1.053,1.94 -3.255,4.893 -4.601,6.89 2.66,-0.462 5.147,-1.105 7.54,-2.24 -3.76,3.525 -3.145,3.008 -5.3,5.41 3.441,1.37 12.215,8.283 13.58,18.97 1.543,14.012 -2.278,26.532 -5.33,36.121 z"
             id="SvgjsPath5319" />
        </g>
        <g
           id="svga-group-glasses-single">
          <path
             opacity="1"
             stroke-width="none"
             fill="#26120b"
             d="M 100,18.13 Z"
             id="SvgjsPath4090" />
        </g>
      </g>
    </g>
  </g>
  <defs
     id="SvgjsDefs1001">
    <radialGradient
       class="svga-on-canvas-facehighlight-gradient-single-0"
       gradientUnits="userSpaceOnUse"
       r="41"
       cy="114"
       cx="100"
       id="SvgjsRadialGradient2886">
      <stop
         offset="0"
         stop-color="#ffe4d6"
         stop-opacity="0.5"
         id="SvgjsStop2887" />
      <stop
         offset="0.9"
         stop-color="#f0c7b1"
         stop-opacity="0"
         id="SvgjsStop2888" />
    </radialGradient>
    <radialGradient
       class="svga-on-canvas-facehighlight-gradient-single-1"
       gradientUnits="userSpaceOnUse"
       r="37"
       cy="54"
       cx="100"
       id="SvgjsRadialGradient2890">
      <stop
         offset="0"
         stop-color="#ffe4d6"
         stop-opacity="0.5"
         id="SvgjsStop2891" />
      <stop
         offset="0.9"
         stop-color="#f0c7b1"
         stop-opacity="0"
         id="SvgjsStop2892" />
    </radialGradient>
    <radialGradient
       class="svga-on-canvas-eyesfront-gradient-left-3"
       gradientUnits="userSpaceOnUse"
       gradientTransform="matrix(0.9998,0.0208,0.0166,-0.7998,-48.8769,148.1393)"
       r="17.684"
       fy="83.773003"
       fx="136.189"
       cy="83.737999"
       cx="123.755"
       id="SvgjsRadialGradient4953">
      <stop
         offset="0"
         stop-color="#e1ac8f"
         stop-opacity="1"
         id="SvgjsStop4954" />
      <stop
         offset="0.7"
         stop-color="#e1ac8f"
         stop-opacity="0.3"
         id="SvgjsStop4955" />
      <stop
         offset="1"
         stop-color="#f0c7b1"
         stop-opacity="0"
         id="SvgjsStop4956" />
    </radialGradient>
    <radialGradient
       class="svga-on-canvas-eyesfront-gradient-left-4"
       gradientUnits="userSpaceOnUse"
       gradientTransform="matrix(-0.8746,-0.4848,-0.3636,0.656,221.3328,94.1879)"
       r="25.823999"
       cy="100.958"
       cx="122.636"
       id="SvgjsRadialGradient4958">
      <stop
         offset="0.94"
         stop-color="#000000"
         stop-opacity="0"
         id="SvgjsStop4959" />
      <stop
         offset="1"
         stop-color="#000000"
         stop-opacity="0.2"
         id="SvgjsStop4960" />
    </radialGradient>
    <radialGradient
       class="svga-on-canvas-eyesfront-gradient-right-3"
       gradientUnits="userSpaceOnUse"
       gradientTransform="matrix(-0.9998,0.0208,-0.0166,-0.7998,248.8769,148.1393)"
       r="17.684999"
       fy="83.773003"
       fx="136.19"
       cy="83.737999"
       cx="123.755"
       id="SvgjsRadialGradient4974">
      <stop
         offset="0"
         stop-color="#e1ac8f"
         stop-opacity="1"
         id="SvgjsStop4975" />
      <stop
         offset="0.7"
         stop-color="#e1ac8f"
         stop-opacity="0.3"
         id="SvgjsStop4976" />
      <stop
         offset="1"
         stop-color="#f0c7b1"
         stop-opacity="0"
         id="SvgjsStop4977" />
    </radialGradient>
    <radialGradient
       class="svga-on-canvas-eyesfront-gradient-right-4"
       gradientUnits="userSpaceOnUse"
       gradientTransform="matrix(0.8746,-0.4848,0.3636,0.656,-21.3328,94.1879)"
       r="25.823999"
       cy="100.958"
       cx="122.636"
       id="SvgjsRadialGradient4979">
      <stop
         offset="0.94"
         stop-color="#000000"
         stop-opacity="0"
         id="SvgjsStop4980" />
      <stop
         offset="1"
         stop-color="#000000"
         stop-opacity="0.2"
         id="SvgjsStop4981" />
    </radialGradient>
    <radialGradient
       class="svga-on-canvas-eyesback-gradient-left-0"
       gradientUnits="userSpaceOnUse"
       gradientTransform="matrix(-1,0,0,1,200,0)"
       r="13"
       cy="85"
       cx="125.2"
       id="SvgjsRadialGradient5220">
      <stop
         offset="0"
         stop-color="#ffffff"
         stop-opacity="1"
         id="SvgjsStop5221" />
      <stop
         offset="0.544"
         stop-color="#fdfefe"
         stop-opacity="1"
         id="SvgjsStop5222" />
      <stop
         offset="0.74"
         stop-color="#f6f8f9"
         stop-opacity="1"
         id="SvgjsStop5223" />
      <stop
         offset="0.879"
         stop-color="#eaeff2"
         stop-opacity="1"
         id="SvgjsStop5224" />
      <stop
         offset="0.992"
         stop-color="#d9e3e8"
         stop-opacity="1"
         id="SvgjsStop5225" />
      <stop
         offset="1"
         stop-color="#d8e2e7"
         stop-opacity="1"
         id="SvgjsStop5226" />
    </radialGradient>
    <radialGradient
       class="svga-on-canvas-eyesback-gradient-right-0"
       gradientUnits="userSpaceOnUse"
       r="13"
       cy="85"
       cx="124.801"
       id="SvgjsRadialGradient5228">
      <stop
         offset="0"
         stop-color="#ffffff"
         stop-opacity="1"
         id="SvgjsStop5229" />
      <stop
         offset="0.544"
         stop-color="#fdfefe"
         stop-opacity="1"
         id="SvgjsStop5230" />
      <stop
         offset="0.74"
         stop-color="#f6f8f9"
         stop-opacity="1"
         id="SvgjsStop5231" />
      <stop
         offset="0.879"
         stop-color="#eaeff2"
         stop-opacity="1"
         id="SvgjsStop5232" />
      <stop
         offset="0.992"
         stop-color="#d9e3e8"
         stop-opacity="1"
         id="SvgjsStop5233" />
      <stop
         offset="1"
         stop-color="#d8e2e7"
         stop-opacity="1"
         id="SvgjsStop5234" />
    </radialGradient>
    <radialGradient
       class="svga-on-canvas-eyesfront-gradient-left-0"
       gradientUnits="userSpaceOnUse"
       gradientTransform="matrix(-1,0,0,1,200,0)"
       r="13"
       cy="85"
       cx="125.2"
       id="SvgjsRadialGradient5236">
      <stop
         offset="0"
         stop-color="#ffffff"
         stop-opacity="1"
         id="SvgjsStop5237" />
      <stop
         offset="0.544"
         stop-color="#fdfefe"
         stop-opacity="1"
         id="SvgjsStop5238" />
      <stop
         offset="0.74"
         stop-color="#f6f8f9"
         stop-opacity="1"
         id="SvgjsStop5239" />
      <stop
         offset="0.879"
         stop-color="#eaeff2"
         stop-opacity="1"
         id="SvgjsStop5240" />
      <stop
         offset="0.992"
         stop-color="#d9e3e8"
         stop-opacity="1"
         id="SvgjsStop5241" />
      <stop
         offset="1"
         stop-color="#d8e2e7"
         stop-opacity="1"
         id="SvgjsStop5242" />
    </radialGradient>
    <radialGradient
       class="svga-on-canvas-eyesfront-gradient-right-0"
       gradientUnits="userSpaceOnUse"
       r="13"
       cy="85"
       cx="124.801"
       id="SvgjsRadialGradient5247">
      <stop
         offset="0"
         stop-color="#ffffff"
         stop-opacity="1"
         id="SvgjsStop5248" />
      <stop
         offset="0.544"
         stop-color="#fdfefe"
         stop-opacity="1"
         id="SvgjsStop5249" />
      <stop
         offset="0.74"
         stop-color="#f6f8f9"
         stop-opacity="1"
         id="SvgjsStop5250" />
      <stop
         offset="0.879"
         stop-color="#eaeff2"
         stop-opacity="1"
         id="SvgjsStop5251" />
      <stop
         offset="0.992"
         stop-color="#d9e3e8"
         stop-opacity="1"
         id="SvgjsStop5252" />
      <stop
         offset="1"
         stop-color="#d8e2e7"
         stop-opacity="1"
         id="SvgjsStop5253" />
    </radialGradient>
    <radialGradient
       class="svga-on-canvas-eyesiris-gradient-left-1"
       gradientUnits="userSpaceOnUse"
       gradientTransform="matrix(0.096,-0.0248,0.0245,0.0961,141.2814,119.9893)"
       r="59.750999"
       cy="-521.04199"
       cx="-568.659"
       id="SvgjsRadialGradient5259">
      <stop
         offset="0"
         stop-color="#ffffff"
         stop-opacity="1"
         id="SvgjsStop5260" />
      <stop
         offset="1"
         stop-color="#ffffff"
         stop-opacity="0"
         id="SvgjsStop5261" />
    </radialGradient>
    <radialGradient
       class="svga-on-canvas-eyesiris-gradient-left-2"
       gradientUnits="userSpaceOnUse"
       gradientTransform="matrix(0.0991,8.856319e-4,-0.0011,0.0991,131.1134,135.9855)"
       r="59.744999"
       cy="-519.099"
       cx="-582.83801"
       id="SvgjsRadialGradient5263">
      <stop
         offset="0"
         stop-color="#ffffff"
         stop-opacity="1"
         id="SvgjsStop5264" />
      <stop
         offset="1"
         stop-color="#ffffff"
         stop-opacity="0"
         id="SvgjsStop5265" />
    </radialGradient>
    <linearGradient
       class="svga-on-canvas-eyesiris-gradient-left-5"
       gradientUnits="userSpaceOnUse"
       gradientTransform="translate(-52)"
       y2="87.152"
       x2="123.606"
       y1="88.267998"
       x1="122.67"
       id="SvgjsLinearGradient5269">
      <stop
         offset="0"
         stop-color="#ffffff"
         stop-opacity="1"
         id="SvgjsStop5270" />
      <stop
         offset="1"
         stop-color="#ffffff"
         stop-opacity="0"
         id="SvgjsStop5271" />
    </linearGradient>
    <linearGradient
       class="svga-on-canvas-eyesiris-gradient-left-6"
       gradientUnits="userSpaceOnUse"
       gradientTransform="translate(-52)"
       y2="83.189003"
       x2="126.463"
       y1="82.295998"
       x1="127.212"
       id="SvgjsLinearGradient5273">
      <stop
         offset="0"
         stop-color="#ffffff"
         stop-opacity="1"
         id="SvgjsStop5274" />
      <stop
         offset="1"
         stop-color="#ffffff"
         stop-opacity="0"
         id="SvgjsStop5275" />
    </linearGradient>
    <linearGradient
       class="svga-on-canvas-eyesiris-gradient-left-7"
       gradientUnits="userSpaceOnUse"
       gradientTransform="translate(-52)"
       y2="81.878998"
       x2="127.91"
       y1="79.821999"
       x1="129.636"
       id="SvgjsLinearGradient5277">
      <stop
         offset="0"
         stop-color="#ffffff"
         stop-opacity="1"
         id="SvgjsStop5278" />
      <stop
         offset="1"
         stop-color="#ffffff"
         stop-opacity="0"
         id="SvgjsStop5279" />
    </linearGradient>
    <radialGradient
       class="svga-on-canvas-eyesiris-gradient-right-1"
       gradientUnits="userSpaceOnUse"
       gradientTransform="matrix(0.096,-0.0248,0.0245,0.0961,193.2804,119.9894)"
       r="59.751999"
       cy="-521.04199"
       cx="-568.65399"
       id="SvgjsRadialGradient5282">
      <stop
         offset="0"
         stop-color="#ffffff"
         stop-opacity="1"
         id="SvgjsStop5283" />
      <stop
         offset="1"
         stop-color="#ffffff"
         stop-opacity="0"
         id="SvgjsStop5284" />
    </radialGradient>
    <radialGradient
       class="svga-on-canvas-eyesiris-gradient-right-2"
       gradientUnits="userSpaceOnUse"
       gradientTransform="matrix(0.0991,8.856319e-4,-0.0011,0.0991,183.1126,135.9856)"
       r="59.747002"
       cy="-519.10199"
       cx="-582.83301"
       id="SvgjsRadialGradient5286">
      <stop
         offset="0"
         stop-color="#ffffff"
         stop-opacity="1"
         id="SvgjsStop5287" />
      <stop
         offset="1"
         stop-color="#ffffff"
         stop-opacity="0"
         id="SvgjsStop5288" />
    </radialGradient>
    <linearGradient
       class="svga-on-canvas-eyesiris-gradient-right-5"
       gradientUnits="userSpaceOnUse"
       y2="87.152"
       x2="123.606"
       y1="88.267998"
       x1="122.67"
       id="SvgjsLinearGradient5292">
      <stop
         offset="0"
         stop-color="#ffffff"
         stop-opacity="1"
         id="SvgjsStop5293" />
      <stop
         offset="1"
         stop-color="#ffffff"
         stop-opacity="0"
         id="SvgjsStop5294" />
    </linearGradient>
    <linearGradient
       class="svga-on-canvas-eyesiris-gradient-right-6"
       gradientUnits="userSpaceOnUse"
       y2="83.189003"
       x2="126.463"
       y1="82.295998"
       x1="127.212"
       id="SvgjsLinearGradient5296">
      <stop
         offset="0"
         stop-color="#ffffff"
         stop-opacity="1"
         id="SvgjsStop5297" />
      <stop
         offset="1"
         stop-color="#ffffff"
         stop-opacity="0"
         id="SvgjsStop5298" />
    </linearGradient>
    <linearGradient
       class="svga-on-canvas-eyesiris-gradient-right-7"
       gradientUnits="userSpaceOnUse"
       y2="81.878998"
       x2="127.91"
       y1="79.821999"
       x1="129.636"
       id="SvgjsLinearGradient5300">
      <stop
         offset="0"
         stop-color="#ffffff"
         stop-opacity="1"
         id="SvgjsStop5301" />
      <stop
         offset="1"
         stop-color="#ffffff"
         stop-opacity="0"
         id="SvgjsStop5302" />
    </linearGradient>
    <radialGradient
       class="svga-on-canvas-backs-gradient-single-1"
       gradientUnits="userSpaceOnUse"
       r="150"
       cy="100"
       cx="100"
       id="SvgjsRadialGradient5342">
      <stop
         offset="0"
         stop-color="#fec6fc"
         stop-opacity="0"
         id="SvgjsStop5343" />
      <stop
         offset="0.2"
         stop-color="#efa2ec"
         stop-opacity="1"
         id="SvgjsStop5344" />
      <stop
         offset="1"
         stop-color="#efa2ec"
         stop-opacity="0"
         id="SvgjsStop5345" />
    </radialGradient>
    <linearGradient
       class="svga-on-canvas-mouth-gradient-single-0"
       gradientUnits="userSpaceOnUse"
       y2="137"
       x2="100"
       y1="141"
       x1="100"
       id="SvgjsLinearGradient5358">
      <stop
         offset="0.1"
         stop-color="#e8b9a0"
         stop-opacity="1"
         id="SvgjsStop5359" />
      <stop
         offset="1"
         stop-color="#e1ac8f"
         stop-opacity="1"
         id="SvgjsStop5360" />
    </linearGradient>
    <linearGradient
       class="svga-on-canvas-chinshadow-gradient-single-0"
       gradientUnits="userSpaceOnUse"
       y2="127"
       x2="100"
       y1="171"
       x1="100"
       id="SvgjsLinearGradient5366">
      <stop
         offset="0"
         stop-color="#e1ac8f"
         stop-opacity="0.8"
         id="SvgjsStop5367" />
      <stop
         offset="0.7"
         stop-color="#c27b55"
         stop-opacity="1"
         id="SvgjsStop5368" />
    </linearGradient>
  </defs>
</svg>
